<?xml version="1.0" encoding="utf-8"?>
<!-- Generator: Adobe Illustrator 23.0.1, SVG Export Plug-In . SVG Version: 6.00 Build 0)  -->
<svg version="1.1" id="Layer_1" xmlns="http://www.w3.org/2000/svg" xmlns:xlink="http://www.w3.org/1999/xlink" x="0px" y="0px"
	 viewBox="0 0 627 236" style="enable-background:new 0 0 627 236;" xml:space="preserve">
<style type="text/css">
	.st0{fill:#00CEB2;}
</style>
<g>
	<path class="st0" d="M15,190.9L36,179.7c1.7-0.9,3-1.3,4-1.3c1.8,0,3.5,0.8,5.2,2.5c4.5,4.4,8.6,6.6,12.5,6.6
		c3.6,0,5.4-1.7,5.4-5.2c0-5.3-6.2-10.6-18.7-15.8c-10.4-4.4-18.4-9.1-23.8-14.1c-8.1-7.5-12.1-17.3-12.1-29.5
		c0-14.4,4.9-25.9,14.7-34.3c9.5-8.3,21.9-12.5,37.1-12.5c16.1,0,29.4,6.4,40.1,19.3c5.5,6.5,8.3,11.5,8.3,15c0,2.9-2.3,5.5-6.9,7.7
		l-18.4,8.5c-2.2,1.1-4.1,1.6-5.6,1.6c-2.8,0-5.3-1.5-7.6-4.4c-1.9-2.5-4.3-3.7-7.2-3.7c-3.4,0-5.1,1.5-5.1,4.4
		c0,3.7,5.2,7.9,15.5,12.5c26.1,11.5,39.1,27.5,39.1,48.2c0,13.4-5.1,24.5-15.3,33.4c-10,8.7-22.1,13.1-36.4,13.1
		c-17.4,0-32.3-6.8-44.8-20.5c-4.9-5.4-7.4-9.6-7.4-12.7C8.6,195.7,10.7,193.1,15,190.9z"/>
	<path class="st0" d="M165.9,177.9v41.7c0.2,6.8-3.1,10.1-9.9,9.9h-26.4c-6.8,0.2-10.1-3.1-9.9-9.9V16c-0.2-6.8,3.1-10.1,9.9-9.9
		H156c6.8-0.2,10.1,3.1,9.9,9.9v114.5l28-44.5c3-5,7.5-7.5,13.3-7.4h31.5c4.2,0,6.3,1.7,6.3,5.2c0,1-0.5,2.2-1.5,3.7l-41.4,66.3
		l42.3,66.9c1,1.6,1.5,2.8,1.5,3.7c0,3.4-2.1,5.2-6.3,5.2h-32.7c-5.5,0.1-9.5-1.7-11.9-5.3L165.9,177.9z"/>
	<path class="st0" d="M304.5,76.3c21.1,0,39.2,7.6,54.4,22.7c15.1,15.1,22.7,33.4,22.7,54.8c0,21.8-7.6,40.3-22.8,55.5
		c-15.1,15-33.4,22.5-54.8,22.5c-21.5,0-39.8-7.5-54.9-22.5c-15.2-15.2-22.8-33.7-22.8-55.4c0-21.4,7.6-39.7,22.7-54.9
		C263.7,83.8,282.3,76.3,304.5,76.3z M303.6,122.4c-8.6,0-16.1,3.1-22.2,9.3c-6.1,6.1-9.1,13.5-9.1,22.1c0,8.8,3,16.4,9.1,22.5
		c6.2,6.1,13.7,9.1,22.5,9.1c8.7,0,16.2-3,22.2-9.1c6.2-6.2,9.3-13.6,9.3-22.4c0-8.6-3.1-16.1-9.3-22.2
		C320.1,125.5,312.5,122.4,303.6,122.4z"/>
	<path class="st0" d="M424.6,83.8c7.6-4.9,17.6-7.4,30.2-7.5h14c6.8-0.2,10.1,3,9.9,9.7v26.8c0.2,6.8-3.1,10.1-9.9,9.9h-14
		c-6.4,0-11.7,2.1-15.9,6.3c-3.7,3.6-5.6,8.1-5.6,13.3v77.3c0.2,6.8-3.1,10.1-9.9,9.9H397c-6.8,0.2-10.1-3.1-9.9-9.9V87.9
		c-0.2-6.8,3.1-10.1,9.9-9.9h20.5C421.8,77.9,424.2,79.8,424.6,83.8z"/>
	<path class="st0" d="M527.6,169.6c4.3,12.6,14.6,18.9,30.9,18.9c9.8,0,20.1-2.1,30.8-6.3c2-0.8,3.5-1.2,4.6-1.2
		c3.4,0,6,2.2,7.8,6.5l7.8,19c1,2.3,1.5,4.1,1.5,5.5c0,2.8-1.9,5.4-5.6,7.5c-14.4,8.3-30.6,12.5-48.6,12.5c-23,0-42.1-7.6-57.3-22.8
		c-15.2-15.2-22.8-33.7-22.8-55.4c0-21.4,7.6-39.6,22.7-54.7c15.1-15,33.3-22.5,54.7-22.5c22.5,0,40,8.5,52.4,25.6
		c10,13.8,15,30.4,15,49.8c0,4.4-0.2,7.9-0.6,10.5c-0.7,4.8-4,7.2-10,7.2H527.6z M575,134.9c-2-9.6-9.6-14.4-22.8-14.4
		c-11.5,0-19.6,4.8-24.3,14.4H575z"/>
</g>
</svg>
