<svg id="Camada_1" data-name="Camada 1" xmlns="http://www.w3.org/2000/svg" viewBox="0 0 873.36 143.99"><circle cx="72" cy="72" r="72" style="fill:#ee7d31"/><path d="M324.32,483.33v19.82H309v79.23H283.27V503.15H268V483.33Z" transform="translate(-95.62 -460.86)"/><path d="M330.19,483.33h42.95v19.82H356v18.79H372v18.84H356v21.78h18.91v19.82H330.19Z" transform="translate(-95.62 -460.86)"/><path d="M436.83,513.31H412.91V506c0-3.43-.3-5.61-.92-6.55a3.36,3.36,0,0,0-3.05-1.4,3.88,3.88,0,0,0-3.52,1.89,11,11,0,0,0-1.2,5.76q0,5,1.35,7.47t7.27,6.05Q430,529.41,434.51,536T439,557.06q0,10.58-2.48,15.6t-9.58,8.41a37.93,37.93,0,0,1-16.52,3.39q-10.33,0-17.65-3.91t-9.57-10q-2.26-6.06-2.27-17.2V546.9h23.93V559c0,3.71.33,6.1,1,7.16a3.89,3.89,0,0,0,3.57,1.59,4.19,4.19,0,0,0,3.83-2,11.55,11.55,0,0,0,1.25-6q0-8.76-2.38-11.44t-12.06-9A117.93,117.93,0,0,1,387.34,530a21.51,21.51,0,0,1-5.17-8,35,35,0,0,1-2.05-13q0-11.38,2.91-16.64a19.49,19.49,0,0,1,9.39-8.23,37.4,37.4,0,0,1,15.66-3q10,0,17.1,3.24t9.36,8.17q2.29,4.92,2.29,16.73Z" transform="translate(-95.62 -460.86)"/><path d="M498.93,483.33v19.82H483.64v79.23H457.88V503.15H442.65V483.33Z" transform="translate(-95.62 -460.86)"/><path d="M504.81,483.33h42.95v19.82h-17.2v18.79h16.1v18.84h-16.1v21.78h18.91v19.82H504.81Z" transform="translate(-95.62 -460.86)"/><path d="M617.83,524.12a25,25,0,0,1,4.95-4.14,24.12,24.12,0,0,1,6.2-2.75,27.54,27.54,0,0,1,7.71-1q11.26,0,17.66,6.95t6.39,19.11v40.09H651.1V544.54q0-9.39-4.45-14.47T634.31,525a18.37,18.37,0,0,0-6.9,1.31,16.22,16.22,0,0,0-5.7,3.89,18.79,18.79,0,0,0-3.88,6.32,23.73,23.73,0,0,0-1.44,8.53v37.33h-9.53V544.29q0-9.13-4.44-14.22T590.2,525a16.85,16.85,0,0,0-7.14,1.5,17,17,0,0,0-5.7,4.26,20.13,20.13,0,0,0-3.82,6.46,23.28,23.28,0,0,0-1.38,8.2v37h-9.65V517.61h9.65v10.9a49.88,49.88,0,0,1,3.57-4.64,21.79,21.79,0,0,1,10.09-6.64,23.77,23.77,0,0,1,7.26-1q7.89,0,13,3.69a23.9,23.9,0,0,1,7.77,9.21A41.58,41.58,0,0,1,617.83,524.12Z" transform="translate(-95.62 -460.86)"/><path d="M742.62,563a34.06,34.06,0,0,1-7.07,10.84,33,33,0,0,1-10.78,7.34,34,34,0,0,1-13.53,2.69,33.08,33.08,0,0,1-13.41-2.69,34.07,34.07,0,0,1-10.65-7.27,32.58,32.58,0,0,1-7-10.72,34.12,34.12,0,0,1-2.5-13,34.61,34.61,0,0,1,2.5-13.09,32.91,32.91,0,0,1,17.73-18.17,34.25,34.25,0,0,1,37.78,7.27,32.64,32.64,0,0,1,7,10.71,34.19,34.19,0,0,1,2.5,13A33.69,33.69,0,0,1,742.62,563Zm-9.14-22.78a24.44,24.44,0,0,0-12.72-13.49,22.75,22.75,0,0,0-9.52-2,23.63,23.63,0,0,0-9.65,1.93,21.74,21.74,0,0,0-7.46,5.38,25.77,25.77,0,0,0-4.82,8,27.08,27.08,0,0,0-1.75,9.81,26.75,26.75,0,0,0,1.81,9.87,24.46,24.46,0,0,0,5,8,24,24,0,0,0,7.58,5.38,22.76,22.76,0,0,0,9.53,2,23.66,23.66,0,0,0,9.65-1.94,22.6,22.6,0,0,0,7.52-5.31,24.57,24.57,0,0,0,4.88-7.94,28,28,0,0,0-.06-19.69Z" transform="translate(-95.62 -460.86)"/><path d="M825.39,564.22a32.68,32.68,0,0,1-7,10.58,30.11,30.11,0,0,1-9.9,6.64,29.49,29.49,0,0,1-11.46,2.32,28.37,28.37,0,0,1-8.27-1.13,27.81,27.81,0,0,1-6.77-3,29.71,29.71,0,0,1-5.45-4.39,38.53,38.53,0,0,1-4.32-5.26v12.4h-9.65V490.91h9.65v39.72a51.09,51.09,0,0,1,4.45-5.51,28.43,28.43,0,0,1,5.45-4.57,27.87,27.87,0,0,1,6.7-3.13,26.47,26.47,0,0,1,8.21-1.19,30.48,30.48,0,0,1,21.3,8.83,32.23,32.23,0,0,1,7,10.59,40.11,40.11,0,0,1,0,28.57Zm-9.09-24.51a24.19,24.19,0,0,0-4.95-7.92,21.5,21.5,0,0,0-7.27-5,22.36,22.36,0,0,0-8.77-1.74,21.68,21.68,0,0,0-8.7,1.81,24.33,24.33,0,0,0-7.52,5.05,23.57,23.57,0,0,0-5.27,7.85,26.18,26.18,0,0,0-1.94,10.22,26.68,26.68,0,0,0,1.94,10.29,23.43,23.43,0,0,0,5.27,7.91,24.53,24.53,0,0,0,7.52,5.06,21.84,21.84,0,0,0,8.7,1.8,23.59,23.59,0,0,0,8.84-1.68,20.53,20.53,0,0,0,7.26-4.86,23.22,23.22,0,0,0,4.89-7.86,28.89,28.89,0,0,0,1.82-10.53A28.06,28.06,0,0,0,816.3,539.71Z" transform="translate(-95.62 -460.86)"/><path d="M846.06,503.45V492.8h11v10.65Zm.63,78.93V517.61h9.64v64.77Z" transform="translate(-95.62 -460.86)"/><path d="M879.64,582.38V490.91h9.65v91.47Z" transform="translate(-95.62 -460.86)"/><path d="M920.11,562.9a22.36,22.36,0,0,0,5.14,6.89,21.54,21.54,0,0,0,7,4.26,23.27,23.27,0,0,0,8.15,1.44A24.88,24.88,0,0,0,952,573a34.47,34.47,0,0,0,8.83-6.64l6,5.38a39.52,39.52,0,0,1-11.16,8.84q-6.26,3.31-15.53,3.32a32.32,32.32,0,0,1-12.53-2.45,31.11,31.11,0,0,1-10.31-6.89,32.8,32.8,0,0,1-7-10.71,35.5,35.5,0,0,1-2.6-13.78A37.54,37.54,0,0,1,910,536.84a33.34,33.34,0,0,1,6.46-10.78,30,30,0,0,1,9.83-7.2,31.29,31.29,0,0,1,25.25.06,28,28,0,0,1,9.52,7.33,32,32,0,0,1,5.89,10.9,43.68,43.68,0,0,1,2,13.41v1.38a12,12,0,0,1-.13,1.62H917.6A26.75,26.75,0,0,0,920.11,562.9Zm39-16.48a33,33,0,0,0-1.81-8.39,22.57,22.57,0,0,0-4-7,19.39,19.39,0,0,0-6.23-4.82,19.05,19.05,0,0,0-8.53-1.82,18.38,18.38,0,0,0-7.85,1.69,20.44,20.44,0,0,0-6.35,4.64,24.21,24.21,0,0,0-4.48,6.95,29.37,29.37,0,0,0-2.25,8.77Z" transform="translate(-95.62 -460.86)"/></svg>